<svg width="1480" height="904" viewBox="0 0 1480 904" fill="none" xmlns="http://www.w3.org/2000/svg">
<g filter="url(#filter0_d_550_1263)">
<path opacity="0.2" d="M20 18.0039C20 18.0039 220.068 101.426 351.21 104.58C506.748 108.32 590.069 17.3186 745.66 18.0039C896.115 18.6665 976.397 107.401 1126.82 104.58C1258.74 102.105 1460 18.0039 1460 18.0039V881.975C1460 881.975 1249.91 797.358 1111.57 796.292C966.508 795.175 890.711 880.357 745.66 881.975C589.616 883.716 507.195 792.045 351.21 796.292C219.533 799.878 20 881.975 20 881.975V18.0039Z" fill="#34C759"/>
<path opacity="0.2" d="M20 36.0048C20 36.0048 220.068 101.552 351.21 104.704C506.748 108.443 590.069 35.3198 745.66 36.0048C896.115 36.6671 976.397 107.525 1126.82 104.704C1258.74 102.231 1460 36.0048 1460 36.0048V863.97C1460 863.97 1249.91 797.227 1111.57 796.162C966.508 795.045 890.711 862.352 745.66 863.97C589.616 865.71 507.195 791.916 351.21 796.162C219.533 799.746 20 863.97 20 863.97V36.0048Z" fill="#34C759"/>
<path d="M20 54.0063C20 54.0063 220.068 101.69 351.21 104.841C506.748 108.578 590.069 53.3216 745.66 54.0063C896.115 54.6684 976.397 107.661 1126.82 104.841C1258.74 102.369 1460 54.0063 1460 54.0063V845.96C1460 845.96 1249.91 797.082 1111.57 796.017C966.508 794.901 890.711 844.343 745.66 845.96C589.616 847.7 507.195 791.773 351.21 796.017C219.533 799.6 20 845.96 20 845.96V54.0063Z" fill="white"/>
</g>
<defs>
<filter id="filter0_d_550_1263" x="0" y="0" width="1480" height="904" filterUnits="userSpaceOnUse" color-interpolation-filters="sRGB">
<feFlood flood-opacity="0" result="BackgroundImageFix"/>
<feColorMatrix in="SourceAlpha" type="matrix" values="0 0 0 0 0 0 0 0 0 0 0 0 0 0 0 0 0 0 127 0" result="hardAlpha"/>
<feOffset dy="2"/>
<feGaussianBlur stdDeviation="10"/>
<feComposite in2="hardAlpha" operator="out"/>
<feColorMatrix type="matrix" values="0 0 0 0 0 0 0 0 0 0 0 0 0 0 0 0 0 0 0.1 0"/>
<feBlend mode="normal" in2="BackgroundImageFix" result="effect1_dropShadow_550_1263"/>
<feBlend mode="normal" in="SourceGraphic" in2="effect1_dropShadow_550_1263" result="shape"/>
</filter>
</defs>
</svg>
