<svg width="22" height="20" viewBox="0 0 22 20" fill="none" xmlns="http://www.w3.org/2000/svg">
<path fill-rule="evenodd" clip-rule="evenodd" d="M-0.000164032 9.58333C-0.000164032 9.94636 0.14249 10.2945 0.396418 10.5512C0.650345 10.8079 0.994745 10.9521 1.35385 10.9521H17.0415L11.2273 16.827C11.1014 16.9543 11.0016 17.1054 10.9334 17.2717C10.8653 17.4379 10.8303 17.6162 10.8303 17.7961C10.8303 17.9761 10.8653 18.1543 10.9334 18.3206C11.0016 18.4869 11.1014 18.638 11.2273 18.7652C11.3532 18.8925 11.5027 18.9935 11.6672 19.0623C11.8316 19.1312 12.0079 19.1667 12.186 19.1667C12.364 19.1667 12.5403 19.1312 12.7048 19.0623C12.8693 18.9935 13.0187 18.8925 13.1446 18.7652L21.2687 10.5524C21.3948 10.4253 21.4948 10.2742 21.5631 10.1079C21.6314 9.94165 21.6665 9.76338 21.6665 9.58333C21.6665 9.40329 21.6314 9.22501 21.5631 9.05872C21.4948 8.89242 21.3948 8.74137 21.2687 8.61422L13.1446 0.401419C12.8904 0.144395 12.5455 0 12.186 0C11.8264 0 11.4816 0.144395 11.2273 0.401419C10.9731 0.658443 10.8303 1.00704 10.8303 1.37053C10.8303 1.73402 10.9731 2.08262 11.2273 2.33964L17.0415 8.21453H1.35385C0.994745 8.21453 0.650345 8.35875 0.396418 8.61545C0.14249 8.87215 -0.000164032 9.2203 -0.000164032 9.58333Z" fill="url(#paint0_linear_248_618)"/>
<defs>
<linearGradient id="paint0_linear_248_618" x1="15.4675" y1="4.99955" x2="-2.64281" y2="13.6055" gradientUnits="userSpaceOnUse">
<stop stop-color="#2A7F62"/>
<stop offset="1" stop-color="#31AE83"/>
</linearGradient>
</defs>
</svg>
