<svg width="22" height="19" viewBox="0 0 22 19" fill="none" xmlns="http://www.w3.org/2000/svg">
<path fill-rule="evenodd" clip-rule="evenodd" d="M21.6667 9.16667C21.6667 9.51391 21.524 9.84694 21.2701 10.0925C21.0162 10.338 20.6718 10.476 20.3127 10.476H4.62503L10.4392 16.0954C10.5651 16.2171 10.6649 16.3617 10.7331 16.5207C10.8012 16.6798 10.8363 16.8502 10.8363 17.0224C10.8363 17.1945 10.8012 17.365 10.7331 17.5241C10.6649 17.6831 10.5651 17.8276 10.4392 17.9494C10.3133 18.0711 10.1638 18.1677 9.99934 18.2335C9.83486 18.2994 9.65857 18.3333 9.48053 18.3333C9.30249 18.3333 9.1262 18.2994 8.96171 18.2335C8.79723 18.1677 8.64778 18.0711 8.52189 17.9494L0.397793 10.0936C0.271698 9.97202 0.171655 9.82754 0.103396 9.66847C0.0351357 9.50941 0 9.33888 0 9.16667C0 8.99445 0.0351357 8.82393 0.103396 8.66486C0.171655 8.50579 0.271698 8.36131 0.397793 8.23969L8.52189 0.383966C8.77613 0.138117 9.12097 0 9.48053 0C9.84009 0 10.1849 0.138117 10.4392 0.383966C10.6934 0.629815 10.8363 0.963259 10.8363 1.31094C10.8363 1.65863 10.6934 1.99207 10.4392 2.23792L4.62503 7.85738H20.3127C20.6718 7.85738 21.0162 7.99532 21.2701 8.24086C21.524 8.4864 21.6667 8.81942 21.6667 9.16667Z" fill="url(#paint0_linear_248_621)"/>
<defs>
<linearGradient id="paint0_linear_248_621" x1="6.19903" y1="4.78218" x2="24.0044" y2="13.6278" gradientUnits="userSpaceOnUse">
<stop stop-color="#2A7F62"/>
<stop offset="1" stop-color="#31AE83"/>
</linearGradient>
</defs>
</svg>
