<svg width="24" height="19" viewBox="0 0 24 19" fill="none" xmlns="http://www.w3.org/2000/svg">
<path d="M23.2301 2.24006C22.3758 2.6186 21.4581 2.87437 20.4934 2.98998C21.4888 2.39433 22.2336 1.45685 22.5886 0.352471C21.6534 0.907994 20.6298 1.29902 19.5624 1.50855C18.8445 0.742127 17.8938 0.234127 16.8577 0.0634233C15.8215 -0.10728 14.7581 0.0688635 13.8323 0.564507C12.9066 1.06015 12.1704 1.84756 11.738 2.8045C11.3056 3.76143 11.2013 4.83434 11.4411 5.85665C9.54606 5.7615 7.69217 5.26894 5.99979 4.41094C4.3074 3.55294 2.81434 2.34867 1.61749 0.876289C1.20826 1.58222 0.972951 2.40068 0.972951 3.27235C0.972495 4.05705 1.16573 4.82973 1.53552 5.52183C1.90531 6.21394 2.44022 6.80407 3.09278 7.23986C2.33598 7.21578 1.59588 7.01129 0.934074 6.6434V6.70479C0.933998 7.80536 1.31469 8.87206 2.01157 9.7239C2.70844 10.5757 3.67857 11.1602 4.75733 11.3782C4.05528 11.5682 3.31922 11.5962 2.60477 11.4601C2.90913 12.4071 3.50201 13.2351 4.30039 13.8284C5.09877 14.4217 6.0627 14.7505 7.05722 14.7687C5.36896 16.094 3.28398 16.8129 1.13767 16.8098C0.757471 16.8099 0.377595 16.7877 0 16.7433C2.17863 18.1441 4.71471 18.8875 7.30481 18.8846C16.0726 18.8846 20.8658 11.6227 20.8658 5.32465C20.8658 5.12003 20.8606 4.91337 20.8514 4.70875C21.7838 4.03452 22.5885 3.1996 23.2281 2.24313L23.2301 2.24006Z" fill="url(#paint0_linear_244_746)"/>
<defs>
<linearGradient id="paint0_linear_244_746" x1="6.64635" y1="4.92597" x2="25.4265" y2="14.6371" gradientUnits="userSpaceOnUse">
<stop stop-color="#2A7F62"/>
<stop offset="1" stop-color="#31AE83"/>
</linearGradient>
</defs>
</svg>
